<?xml version="1.0" standalone="no"?>
<!DOCTYPE svg PUBLIC "-//W3C//DTD SVG 20010904//EN"
 "http://www.w3.org/TR/2001/REC-SVG-20010904/DTD/svg10.dtd">
<svg version="1.0" xmlns="http://www.w3.org/2000/svg"
 width="512.000000pt" height="512.000000pt" viewBox="0 0 512.000000 512.000000"
 preserveAspectRatio="xMidYMid meet">
<metadata>
Created by potrace 1.11, written by Peter Selinger 2001-2013
</metadata>
<g transform="translate(0.000000,512.000000) scale(0.100000,-0.100000)"
fill="#000000" stroke="none">
<path d="M1575 5105 c-138 -21 -148 -24 -240 -49 -637 -172 -1129 -679 -1284
-1321 -48 -202 -49 -215 -49 -1160 0 -489 4 -919 9 -955 5 -36 12 -83 15 -105
17 -127 71 -304 136 -450 149 -331 396 -608 718 -807 132 -81 309 -156 470
-198 214 -56 253 -57 1225 -58 814 -1 900 1 1005 17 143 23 218 42 345 88 567
204 1005 691 1145 1273 47 198 49 231 49 1180 0 719 -3 915 -14 995 -85 601
-449 1107 -991 1378 -168 84 -336 136 -534 167 -104 16 -201 18 -1020 18 -675
0 -925 -4 -985 -13z"/>
</g>
</svg>
